<mxfile host="app.diagrams.net" modified="2024-01-11T01:40:09.387Z" agent="Mozilla/5.0 (Windows NT 10.0; Win64; x64) AppleWebKit/537.36 (KHTML, like Gecko) Chrome/120.0.0.0 Safari/537.36" etag="F2JVPafwQ9sxOpA94s-E" version="22.1.18" type="github">
  <diagram name="第 1 页" id="VUV-ebfLT0uJASyQHW5M">
    <mxGraphModel dx="1050" dy="597" grid="0" gridSize="10" guides="1" tooltips="1" connect="1" arrows="1" fold="1" page="1" pageScale="1" pageWidth="827" pageHeight="1169" math="0" shadow="0">
      <root>
        <mxCell id="0" />
        <mxCell id="1" parent="0" />
        <mxCell id="EkF805o-EjJROyHPNUrf-1" value="data" style="rounded=0;whiteSpace=wrap;html=1;fillColor=#f8cecc;strokeColor=#b85450;" vertex="1" parent="1">
          <mxGeometry x="70" y="280" width="40" height="40" as="geometry" />
        </mxCell>
        <mxCell id="EkF805o-EjJROyHPNUrf-16" value="" style="edgeStyle=orthogonalEdgeStyle;rounded=0;orthogonalLoop=1;jettySize=auto;html=1;" edge="1" parent="1" target="EkF805o-EjJROyHPNUrf-15">
          <mxGeometry relative="1" as="geometry">
            <mxPoint x="610" y="300" as="sourcePoint" />
          </mxGeometry>
        </mxCell>
        <mxCell id="EkF805o-EjJROyHPNUrf-15" value="Null" style="ellipse;whiteSpace=wrap;html=1;rounded=0;" vertex="1" parent="1">
          <mxGeometry x="670" y="282.5" width="70" height="35" as="geometry" />
        </mxCell>
        <mxCell id="EkF805o-EjJROyHPNUrf-27" value="" style="edgeStyle=orthogonalEdgeStyle;rounded=0;orthogonalLoop=1;jettySize=auto;html=1;" edge="1" parent="1" source="EkF805o-EjJROyHPNUrf-19" target="EkF805o-EjJROyHPNUrf-25">
          <mxGeometry relative="1" as="geometry" />
        </mxCell>
        <mxCell id="EkF805o-EjJROyHPNUrf-19" value="next" style="rounded=0;whiteSpace=wrap;html=1;fillColor=#d5e8d4;strokeColor=#82b366;" vertex="1" parent="1">
          <mxGeometry x="110" y="280" width="40" height="40" as="geometry" />
        </mxCell>
        <mxCell id="EkF805o-EjJROyHPNUrf-20" value="data" style="rounded=0;whiteSpace=wrap;html=1;fillColor=#f8cecc;strokeColor=#b85450;" vertex="1" parent="1">
          <mxGeometry x="374" y="280" width="40" height="40" as="geometry" />
        </mxCell>
        <mxCell id="EkF805o-EjJROyHPNUrf-29" value="" style="edgeStyle=orthogonalEdgeStyle;rounded=0;orthogonalLoop=1;jettySize=auto;html=1;" edge="1" parent="1" source="EkF805o-EjJROyHPNUrf-21" target="EkF805o-EjJROyHPNUrf-22">
          <mxGeometry relative="1" as="geometry" />
        </mxCell>
        <mxCell id="EkF805o-EjJROyHPNUrf-21" value="next" style="rounded=0;whiteSpace=wrap;html=1;fillColor=#d5e8d4;strokeColor=#82b366;" vertex="1" parent="1">
          <mxGeometry x="414" y="280" width="40" height="40" as="geometry" />
        </mxCell>
        <mxCell id="EkF805o-EjJROyHPNUrf-22" value="data" style="rounded=0;whiteSpace=wrap;html=1;fillColor=#f8cecc;strokeColor=#b85450;" vertex="1" parent="1">
          <mxGeometry x="530" y="280" width="40" height="40" as="geometry" />
        </mxCell>
        <mxCell id="EkF805o-EjJROyHPNUrf-23" value="next" style="rounded=0;whiteSpace=wrap;html=1;fillColor=#d5e8d4;strokeColor=#82b366;" vertex="1" parent="1">
          <mxGeometry x="570" y="280" width="40" height="40" as="geometry" />
        </mxCell>
        <mxCell id="EkF805o-EjJROyHPNUrf-25" value="data" style="rounded=0;whiteSpace=wrap;html=1;fillColor=#f8cecc;strokeColor=#b85450;" vertex="1" parent="1">
          <mxGeometry x="220" y="280" width="40" height="40" as="geometry" />
        </mxCell>
        <mxCell id="EkF805o-EjJROyHPNUrf-30" style="edgeStyle=orthogonalEdgeStyle;rounded=0;orthogonalLoop=1;jettySize=auto;html=1;exitX=1;exitY=0.5;exitDx=0;exitDy=0;entryX=0;entryY=0.5;entryDx=0;entryDy=0;" edge="1" parent="1" source="EkF805o-EjJROyHPNUrf-26" target="EkF805o-EjJROyHPNUrf-20">
          <mxGeometry relative="1" as="geometry" />
        </mxCell>
        <mxCell id="EkF805o-EjJROyHPNUrf-26" value="next" style="rounded=0;whiteSpace=wrap;html=1;fillColor=#d5e8d4;strokeColor=#82b366;" vertex="1" parent="1">
          <mxGeometry x="260" y="280" width="40" height="40" as="geometry" />
        </mxCell>
        <mxCell id="EkF805o-EjJROyHPNUrf-31" value="Head" style="text;html=1;align=center;verticalAlign=middle;resizable=0;points=[];autosize=1;strokeColor=none;fillColor=none;" vertex="1" parent="1">
          <mxGeometry x="90" y="250" width="50" height="30" as="geometry" />
        </mxCell>
        <mxCell id="EkF805o-EjJROyHPNUrf-62" value="" style="rounded=0;whiteSpace=wrap;html=1;" vertex="1" parent="1">
          <mxGeometry x="145" y="396" width="40" height="40" as="geometry" />
        </mxCell>
        <mxCell id="EkF805o-EjJROyHPNUrf-63" value="3" style="rounded=0;whiteSpace=wrap;html=1;fillColor=#e51400;strokeColor=#B20000;fontColor=#ffffff;" vertex="1" parent="1">
          <mxGeometry x="185" y="396" width="40" height="40" as="geometry" />
        </mxCell>
        <mxCell id="EkF805o-EjJROyHPNUrf-64" value="" style="rounded=0;whiteSpace=wrap;html=1;" vertex="1" parent="1">
          <mxGeometry x="225" y="396" width="40" height="40" as="geometry" />
        </mxCell>
        <mxCell id="EkF805o-EjJROyHPNUrf-65" value="" style="rounded=0;whiteSpace=wrap;html=1;" vertex="1" parent="1">
          <mxGeometry x="265" y="396" width="40" height="40" as="geometry" />
        </mxCell>
        <mxCell id="EkF805o-EjJROyHPNUrf-93" style="edgeStyle=orthogonalEdgeStyle;rounded=0;orthogonalLoop=1;jettySize=auto;html=1;exitX=1;exitY=0.25;exitDx=0;exitDy=0;entryX=0.75;entryY=1;entryDx=0;entryDy=0;" edge="1" parent="1" source="EkF805o-EjJROyHPNUrf-66" target="EkF805o-EjJROyHPNUrf-68">
          <mxGeometry relative="1" as="geometry">
            <Array as="points">
              <mxPoint x="415" y="406" />
            </Array>
          </mxGeometry>
        </mxCell>
        <mxCell id="EkF805o-EjJROyHPNUrf-94" style="edgeStyle=orthogonalEdgeStyle;rounded=0;orthogonalLoop=1;jettySize=auto;html=1;exitX=1;exitY=0.5;exitDx=0;exitDy=0;entryX=0.75;entryY=1;entryDx=0;entryDy=0;" edge="1" parent="1" source="EkF805o-EjJROyHPNUrf-66" target="EkF805o-EjJROyHPNUrf-68">
          <mxGeometry relative="1" as="geometry" />
        </mxCell>
        <mxCell id="EkF805o-EjJROyHPNUrf-95" style="edgeStyle=orthogonalEdgeStyle;rounded=0;orthogonalLoop=1;jettySize=auto;html=1;exitX=1;exitY=0.5;exitDx=0;exitDy=0;" edge="1" parent="1" source="EkF805o-EjJROyHPNUrf-66" target="EkF805o-EjJROyHPNUrf-75">
          <mxGeometry relative="1" as="geometry" />
        </mxCell>
        <mxCell id="EkF805o-EjJROyHPNUrf-66" value="1" style="rounded=0;whiteSpace=wrap;html=1;fillColor=#e51400;strokeColor=#B20000;fontColor=#ffffff;" vertex="1" parent="1">
          <mxGeometry x="305" y="396" width="40" height="40" as="geometry" />
        </mxCell>
        <mxCell id="EkF805o-EjJROyHPNUrf-67" value="" style="rounded=0;whiteSpace=wrap;html=1;" vertex="1" parent="1">
          <mxGeometry x="345" y="396" width="40" height="40" as="geometry" />
        </mxCell>
        <mxCell id="EkF805o-EjJROyHPNUrf-68" value="" style="rounded=0;whiteSpace=wrap;html=1;" vertex="1" parent="1">
          <mxGeometry x="385" y="396" width="40" height="40" as="geometry" />
        </mxCell>
        <mxCell id="EkF805o-EjJROyHPNUrf-69" value="2" style="rounded=0;whiteSpace=wrap;html=1;fillColor=#e51400;strokeColor=#B20000;fontColor=#ffffff;" vertex="1" parent="1">
          <mxGeometry x="145" y="436" width="40" height="40" as="geometry" />
        </mxCell>
        <mxCell id="EkF805o-EjJROyHPNUrf-70" value="" style="rounded=0;whiteSpace=wrap;html=1;" vertex="1" parent="1">
          <mxGeometry x="185" y="436" width="40" height="40" as="geometry" />
        </mxCell>
        <mxCell id="EkF805o-EjJROyHPNUrf-71" value="" style="rounded=0;whiteSpace=wrap;html=1;" vertex="1" parent="1">
          <mxGeometry x="225" y="436" width="40" height="40" as="geometry" />
        </mxCell>
        <mxCell id="EkF805o-EjJROyHPNUrf-72" value="5" style="rounded=0;whiteSpace=wrap;html=1;fillColor=#e51400;strokeColor=#B20000;fontColor=#ffffff;" vertex="1" parent="1">
          <mxGeometry x="265" y="436" width="40" height="40" as="geometry" />
        </mxCell>
        <mxCell id="EkF805o-EjJROyHPNUrf-73" value="" style="rounded=0;whiteSpace=wrap;html=1;" vertex="1" parent="1">
          <mxGeometry x="305" y="436" width="40" height="40" as="geometry" />
        </mxCell>
        <mxCell id="EkF805o-EjJROyHPNUrf-74" value="" style="rounded=0;whiteSpace=wrap;html=1;" vertex="1" parent="1">
          <mxGeometry x="345" y="436" width="40" height="40" as="geometry" />
        </mxCell>
        <mxCell id="EkF805o-EjJROyHPNUrf-75" value="4" style="rounded=0;whiteSpace=wrap;html=1;fillColor=#e51400;strokeColor=#B20000;fontColor=#ffffff;" vertex="1" parent="1">
          <mxGeometry x="385" y="436" width="40" height="40" as="geometry" />
        </mxCell>
        <mxCell id="EkF805o-EjJROyHPNUrf-76" value="" style="rounded=0;whiteSpace=wrap;html=1;" vertex="1" parent="1">
          <mxGeometry x="145" y="476" width="40" height="40" as="geometry" />
        </mxCell>
        <mxCell id="EkF805o-EjJROyHPNUrf-77" value="" style="rounded=0;whiteSpace=wrap;html=1;" vertex="1" parent="1">
          <mxGeometry x="185" y="476" width="40" height="40" as="geometry" />
        </mxCell>
        <mxCell id="EkF805o-EjJROyHPNUrf-78" value="" style="rounded=0;whiteSpace=wrap;html=1;" vertex="1" parent="1">
          <mxGeometry x="225" y="476" width="40" height="40" as="geometry" />
        </mxCell>
        <mxCell id="EkF805o-EjJROyHPNUrf-79" value="" style="rounded=0;whiteSpace=wrap;html=1;" vertex="1" parent="1">
          <mxGeometry x="265" y="476" width="40" height="40" as="geometry" />
        </mxCell>
        <mxCell id="EkF805o-EjJROyHPNUrf-80" value="" style="rounded=0;whiteSpace=wrap;html=1;" vertex="1" parent="1">
          <mxGeometry x="305" y="476" width="40" height="40" as="geometry" />
        </mxCell>
        <mxCell id="EkF805o-EjJROyHPNUrf-81" value="2" style="rounded=0;whiteSpace=wrap;html=1;fillColor=#e51400;strokeColor=#B20000;fontColor=#ffffff;" vertex="1" parent="1">
          <mxGeometry x="345" y="476" width="40" height="40" as="geometry" />
        </mxCell>
        <mxCell id="EkF805o-EjJROyHPNUrf-82" value="" style="rounded=0;whiteSpace=wrap;html=1;" vertex="1" parent="1">
          <mxGeometry x="385" y="476" width="40" height="40" as="geometry" />
        </mxCell>
        <mxCell id="EkF805o-EjJROyHPNUrf-83" value="" style="rounded=0;whiteSpace=wrap;html=1;" vertex="1" parent="1">
          <mxGeometry x="145" y="516" width="40" height="40" as="geometry" />
        </mxCell>
        <mxCell id="EkF805o-EjJROyHPNUrf-84" value="9" style="rounded=0;whiteSpace=wrap;html=1;fillColor=#e51400;strokeColor=#B20000;fontColor=#ffffff;" vertex="1" parent="1">
          <mxGeometry x="185" y="516" width="40" height="40" as="geometry" />
        </mxCell>
        <mxCell id="EkF805o-EjJROyHPNUrf-85" value="" style="rounded=0;whiteSpace=wrap;html=1;" vertex="1" parent="1">
          <mxGeometry x="225" y="516" width="40" height="40" as="geometry" />
        </mxCell>
        <mxCell id="EkF805o-EjJROyHPNUrf-86" value="7" style="rounded=0;whiteSpace=wrap;html=1;fillColor=#e51400;strokeColor=#B20000;fontColor=#ffffff;" vertex="1" parent="1">
          <mxGeometry x="265" y="516" width="40" height="40" as="geometry" />
        </mxCell>
        <mxCell id="EkF805o-EjJROyHPNUrf-87" value="" style="rounded=0;whiteSpace=wrap;html=1;" vertex="1" parent="1">
          <mxGeometry x="305" y="516" width="40" height="40" as="geometry" />
        </mxCell>
        <mxCell id="EkF805o-EjJROyHPNUrf-88" value="" style="rounded=0;whiteSpace=wrap;html=1;" vertex="1" parent="1">
          <mxGeometry x="345" y="516" width="40" height="40" as="geometry" />
        </mxCell>
        <mxCell id="EkF805o-EjJROyHPNUrf-89" value="" style="rounded=0;whiteSpace=wrap;html=1;" vertex="1" parent="1">
          <mxGeometry x="385" y="516" width="40" height="40" as="geometry" />
        </mxCell>
      </root>
    </mxGraphModel>
  </diagram>
</mxfile>
